Coordinates
version=1
nRows=12
nColumns=42
inDegrees=yes

Units are S.I. units (second, meters, Newtons, ...)
If the header above contains a line with 'inDegrees', this indicates whether rotational values are in degrees (yes) or radians (no).

endheader
time	pelvis_tilt	pelvis_list	pelvis_rotation	pelvis_tx	pelvis_ty	pelvis_tz	hip_flexion_r	hip_adduction_r	hip_rotation_r	knee_angle_r	knee_adduction_r	knee_angle_r_beta	ankle_angle_r	subtalar_angle_r	mtp_angle_r	hip_flexion_l	hip_adduction_l	hip_rotation_l	knee_angle_l	knee_adduction_l	knee_angle_l_beta	ankle_angle_l	subtalar_angle_l	mtp_angle_l	lumbar_extension	lumbar_bending	lumbar_rotation	arm_flex_r	arm_add_r	arm_rot_r	elbow_flex_r	pro_sup_r	wrist_flex_r	wrist_dev_r	arm_flex_l	arm_add_l	arm_rot_l	elbow_flex_l	pro_sup_l	wrist_flex_l	wrist_dev_l
      1.78000000	      8.01827903	     -0.75231625	     -3.24071972	      1.61382033	      0.80621918	     -0.32428633	     26.96423648	     -3.90865020	    -35.26040009	     24.73634832	     -6.24234412	      0.43173072	     16.83175968	     21.82617464	     -7.50001366	    -15.37696769	     -0.47927251	    -38.18102931	     22.23683865	     -3.23384225	      0.38810605	     30.54544625	     30.22030453	     -7.50001366	    -19.21481578	      1.91129289	     -3.36378138	      2.63587794	    -16.53512325	     -9.28604043	     33.11903990	     90.00000001	      0.00000000	      0.00000000	      1.84017739	    -10.03400895	     -9.63539272	     58.91171517	     90.00000001	      0.00000000	      0.00000000
      1.79000000	      8.01635586	     -0.60512870	     -2.89499024	      1.62825175	      0.80391291	     -0.32421730	     27.22983430	     -4.11473038	    -36.57498299	     23.35322821	     -5.60862678	      0.40759072	     17.27312054	     25.68319928	     -7.50001279	    -16.38375357	     -0.65552329	    -38.12763320	     22.59692954	     -3.21399619	      0.39439082	     30.55592675	     30.98744954	     -7.50001279	    -19.24677382	      1.86747853	     -3.77153844	      2.34678052	    -16.42857689	    -10.21130282	     32.91236589	     90.00000001	      0.00000000	      0.00000000	      2.30242705	    -10.38291610	     -8.74610726	     61.18553223	     90.00000001	      0.00000000	      0.00000000
      1.80000000	      8.04733487	     -0.61715365	     -2.57139518	      1.64281452	      0.80187323	     -0.32405074	     27.31547969	     -3.87592536	    -36.51354114	     22.22798021	     -5.03655809	      0.38795144	     17.26715310	     26.73845455	     -7.50001255	    -17.37642504	     -0.99165458	    -37.85423794	     23.03788494	     -3.24756002	      0.40208694	     30.31574252	     31.29843323	     -7.50001255	    -19.31031559	      2.00941423	     -3.95787865	      1.93481169	    -16.56808053	    -10.52370616	     32.70498009	     90.00000001	      0.00000000	      0.00000000	      3.24803199	    -10.33154051	     -8.48502762	     62.21630473	     90.00000001	      0.00000000	      0.00000000
      1.81000000	      8.14118544	     -0.68545456	     -2.21778543	      1.65771920	      0.79994935	     -0.32374430	     27.39091276	     -3.62409589	    -36.44586175	     21.78501502	     -4.83208123	      0.38022024	     17.33754815	     27.57994589	     -7.50001233	    -18.39953225	     -1.45832731	    -37.49302666	     23.59406170	     -3.29733890	      0.41179406	     29.96582922	     31.66211743	     -7.50001233	    -19.41377005	      2.20148672	     -4.11649294	      1.50335038	    -16.67028763	    -10.86723199	     32.52542129	     90.00000001	      0.00000000	      0.00000000	      3.98134825	    -10.32094538	     -8.13271014	     63.44441063	     90.00000001	      0.00000000	      0.00000000
      1.82000000	      8.30363183	     -0.80239070	     -1.84554685	      1.67291219	      0.79819995	     -0.32333723	     27.43804376	     -3.30410868	    -36.24031809	     21.95487821	     -5.02426254	      0.38318491	     17.40595681	     28.00672724	     -7.50001213	    -19.44399055	     -2.00191490	    -36.97977274	     24.24170214	     -3.38559562	      0.42309752	     29.47401772	     31.93110525	     -7.50001213	    -19.56917549	      2.44903520	     -4.27817533	      1.09404121	    -16.76011917	    -11.20946471	     32.36923991	     90.00000001	      0.00000000	      0.00000000	      4.58072156	    -10.31358407	     -7.76048429	     64.54342689	     90.00000001	      0.00000000	      0.00000000
      1.83000000	      8.52338068	     -0.97834179	     -1.45836131	      1.68840653	      0.79661801	     -0.32280931	     27.39803368	     -2.87969356	    -35.87269803	     22.57333525	     -5.52784074	      0.39397902	     17.42580029	     28.10749493	     -7.50000965	    -20.51365790	     -2.63751430	    -36.31812693	     24.96152231	     -3.47504900	      0.43566075	     28.70325273	     32.02317116	     -7.50000965	    -19.76215159	      2.76952420	     -4.42438690	      0.96414493	    -16.41132744	    -13.87506177	     32.19332128	     90.00000001	      0.00000000	      0.00000000	      4.91810189	    -10.56310998	     -6.81005686	     65.82859893	     90.00000001	      0.00000000	      0.00000000
      1.84000000	      8.71932614	     -1.23808580	     -1.06352586	      1.70422943	      0.79515445	     -0.32219169	     27.31902662	     -2.32835509	    -35.25526698	     23.53961195	     -6.17661084	      0.41084373	     17.28171930	     27.52428233	     -7.50000939	    -21.51059857	     -3.41313679	    -35.52914828	     25.80293926	     -3.48975911	      0.45034625	     27.58829271	     31.89009203	     -7.50000939	    -19.88764247	      3.18849098	     -4.50108851	      0.53686536	    -16.54459720	    -14.01534916	     32.01740031	     90.00000001	      0.00000000	      0.00000000	      5.29614695	    -10.45844976	     -6.61543070	     66.57412855	     90.00000001	      0.00000000	      0.00000000
      1.85000000	      8.92689723	     -1.49584141	     -0.67420581	      1.72028423	      0.79381455	     -0.32145640	     27.15551541	     -1.80356825	    -34.58646039	     24.79131997	     -6.85546151	      0.43269016	     17.05756161	     27.08404145	     -7.50000929	    -22.42943108	     -4.24134249	    -34.67085208	     26.79509428	     -3.49649822	      0.46766262	     26.59997647	     31.81168360	     -7.50000929	    -19.99202812	      3.58633096	     -4.52780334	      0.12445193	    -16.68364089	    -14.11522126	     31.82839147	     90.00000001	      0.00000000	      0.00000000	      5.61065172	    -10.30607870	     -6.48598044	     66.97879259	     90.00000001	      0.00000000	      0.00000000
      1.86000000	      9.07776677	     -1.81456374	     -0.24924810	      1.73649854	      0.79261006	     -0.32071468	     26.96944796	     -1.18380266	    -33.87018699	     26.16403917	     -7.64446547	      0.45664863	     16.41496753	     25.48704706	     -7.50000910	    -23.09721164	     -5.23328873	    -33.73775531	     28.13183446	     -3.50546106	      0.49099314	     24.33787518	     31.13375031	     -7.50000910	    -20.01713316	      4.12043380	     -4.60513233	     -0.27480317	    -16.81578810	    -14.28717845	     31.71056530	     90.00000001	      0.00000000	      0.00000000	      5.71173838	    -10.22943479	     -6.23579604	     67.53976469	     90.00000001	      0.00000000	      0.00000000
      1.87000000	      9.19480799	     -2.09989821	      0.10777493	      1.75273094	      0.79160347	     -0.31975206	     26.69431406	     -0.55873955	    -32.68943651	     27.56673484	     -8.17109415	      0.48113029	     15.43364950	     23.30387349	     -7.50000883	    -23.55988372	     -6.24051988	    -32.68200481	     29.72011829	     -3.45219223	      0.51871392	     21.96072009	     30.07553384	     -7.50000883	    -20.02558190	      4.55606520	     -4.57765697	     -0.61926828	    -16.84695519	    -14.48530628	     31.60253326	     90.00000001	      0.00000000	      0.00000000	      5.69099876	    -10.16936006	     -6.03239245	     67.84318782	     90.00000001	      0.00000000	      0.00000000
      1.88000000	      9.29219105	     -2.39533756	      0.41491203	      1.76887468	      0.79089373	     -0.31880281	     26.32196077	      0.10290724	    -31.13911615	     28.94758473	     -8.44361484	      0.50523066	     14.24838795	     20.42681906	     -7.50000842	    -23.74662789	     -7.20521701	    -31.41744517	     31.60128021	     -3.48969011	      0.55154639	     19.42475177	     28.54849796	     -7.50000842	    -20.02682757	      5.04448277	     -4.48284256	     -0.88098383	    -16.96006174	    -14.77075445	     31.46835840	     90.00000001	      0.00000000	      0.00000000	      5.69451522	    -10.03646840	     -5.94202988	     67.86923474	     90.00000001	      0.00000000	      0.00000000
      1.89000000	      9.29039306	     -2.69951940	      0.72803688	      1.78485584	      0.79025565	     -0.31762867	     26.12933509	      0.58711209	    -30.61403979	     30.44308336	     -8.92598849	      0.53133204	     13.57885117	     19.17514087	     -7.50000823	    -23.41322913	     -8.37120433	    -30.36940888	     34.12288506	     -3.66107768	      0.59555669	     16.81198538	     27.58119840	     -7.50000823	    -19.94596876	      5.50194230	     -4.36109287	     -1.15489092	    -17.00158008	    -14.90084489	     31.32783798	     90.00000001	      0.00000000	      0.00000000	      5.61070934	     -9.87759383	     -5.96918192	     67.76919825	     90.00000001	      0.00000000	      0.00000000
